HIERARCHY
ROOT Hips
{
  OFFSET -2.599 -3.138 -289.468
  CHANNELS 6 Xposition Yposition Zposition Zrotation Xrotation Yrotation
  JOINT LeftUpLeg
  {
    OFFSET 8.666 -7.764 2.405
    CHANNELS 6 Xposition Yposition Zposition Zrotation Xrotation Yrotation
    JOINT LeftLeg
    {
      OFFSET -0.000 -52.860 0.000
      CHANNELS 6 Xposition Yposition Zposition Zrotation Xrotation Yrotation
      JOINT LeftFoot
      {
        OFFSET -0.000 -39.221 -0.000
        CHANNELS 6 Xposition Yposition Zposition Zrotation Xrotation Yrotation
        End Site
        {
          OFFSET 0.000 -7.495 4.327
        }
      }
    }
  }
  JOINT RightUpLeg
  {
    OFFSET -7.915 -8.401 0.929
    CHANNELS 6 Xposition Yposition Zposition Zrotation Xrotation Yrotation
    JOINT RightLeg
    {
      OFFSET 0.000 -52.842 0.000
      CHANNELS 6 Xposition Yposition Zposition Zrotation Xrotation Yrotation
      JOINT RightFoot
      {
        OFFSET -0.000 -39.353 -0.000
        CHANNELS 6 Xposition Yposition Zposition Zrotation Xrotation Yrotation
        End Site
        {
          OFFSET 0.000 -7.431 4.290
        }
      }
    }
  }
  JOINT Spine
  {
    OFFSET 0.000 6.598 -6.598
    CHANNELS 6 Xposition Yposition Zposition Zrotation Xrotation Yrotation
    JOINT LeftShoulder
    {
      OFFSET -0.000 37.717 0.000
      CHANNELS 6 Xposition Yposition Zposition Zrotation Xrotation Yrotation
      JOINT LeftArm
      {
        OFFSET 22.781 0.000 -0.000
        CHANNELS 6 Xposition Yposition Zposition Zrotation Xrotation Yrotation
        JOINT LeftForeArm
        {
          OFFSET 25.411 0.000 0.000
          CHANNELS 6 Xposition Yposition Zposition Zrotation Xrotation Yrotation
          JOINT LeftHand
          {
            OFFSET 24.820 -0.000 -0.000
            CHANNELS 6 Xposition Yposition Zposition Zrotation Xrotation Yrotation
            JOINT LeftHandThumb1
            {
            OFFSET 4.970 -0.620 3.390
            CHANNELS 6 Xposition Yposition Zposition Zrotation Xrotation Yrotation
              JOINT LeftHandThumb2
              {
              OFFSET 2.150 -0.000 0.000
              CHANNELS 6 Xposition Yposition Zposition Zrotation Xrotation Yrotation
                JOINT LeftHandThumb3
                {
                OFFSET 2.200 -0.000 0.000
                CHANNELS 6 Xposition Yposition Zposition Zrotation Xrotation Yrotation
                  JOINT LeftHandThumb4
                  {
                  OFFSET 1.700 -0.000 0.000
                  CHANNELS 6 Xposition Yposition Zposition Zrotation Xrotation Yrotation
                  }
                }
              }
            }
            JOINT LeftHandIndex1
            {
            OFFSET 8.730 0.680 2.070
            CHANNELS 6 Xposition Yposition Zposition Zrotation Xrotation Yrotation
              JOINT LeftHandIndex2
              {
              OFFSET 2.670 -0.000 0.000
              CHANNELS 6 Xposition Yposition Zposition Zrotation Xrotation Yrotation
                JOINT LeftHandIndex3
                {
                OFFSET 2.130 -0.000 0.000
                CHANNELS 6 Xposition Yposition Zposition Zrotation Xrotation Yrotation
                  JOINT LeftHandIndex4
                  {
                  OFFSET 1.800 -0.000 0.000
                  CHANNELS 6 Xposition Yposition Zposition Zrotation Xrotation Yrotation
                  }
                }
              }
            }
            JOINT LeftHandMiddle1
            {
            OFFSET 9.220 0.670 0.550
            CHANNELS 6 Xposition Yposition Zposition Zrotation Xrotation Yrotation
              JOINT LeftHandMiddle2
              {
              OFFSET 2.660 -0.000 0.000
              CHANNELS 6 Xposition Yposition Zposition Zrotation Xrotation Yrotation
                JOINT LeftHandMiddle3
                {
                OFFSET 2.280 -0.000 0.000
                CHANNELS 6 Xposition Yposition Zposition Zrotation Xrotation Yrotation
                  JOINT LeftHandMiddle4
                  {
                  OFFSET 1.500 -0.000 0.000
                  CHANNELS 6 Xposition Yposition Zposition Zrotation Xrotation Yrotation
                  }
                }
              }
            }
            JOINT LeftHandRing1
            {
            OFFSET 9.250 0.670 -1.130
            CHANNELS 6 Xposition Yposition Zposition Zrotation Xrotation Yrotation
              JOINT LeftHandRing2
              {
              OFFSET 2.470 -0.000 0.000
              CHANNELS 6 Xposition Yposition Zposition Zrotation Xrotation Yrotation
                JOINT LeftHandRing3
                {
                OFFSET 2.210 -0.000 0.000
                CHANNELS 6 Xposition Yposition Zposition Zrotation Xrotation Yrotation
                  JOINT LeftHandRing4
                  {
                  OFFSET 1.800 -0.000 0.000
                  CHANNELS 6 Xposition Yposition Zposition Zrotation Xrotation Yrotation
                  }
                }
              }
            }
            JOINT LeftHandPinky1
            {
            OFFSET 9.350 0.660 -2.720
            CHANNELS 6 Xposition Yposition Zposition Zrotation Xrotation Yrotation
              JOINT LeftHandPinky2
              {
              OFFSET 1.630 -0.000 0.000
              CHANNELS 6 Xposition Yposition Zposition Zrotation Xrotation Yrotation
                JOINT LeftHandPinky3
                {
                OFFSET 1.710 -0.000 0.000
                CHANNELS 6 Xposition Yposition Zposition Zrotation Xrotation Yrotation
                  JOINT LeftHandPinky4
                  {
                  OFFSET 1.800 -0.000 0.000
                  CHANNELS 6 Xposition Yposition Zposition Zrotation Xrotation Yrotation
                  }
                }
              }
            }
          }
        }
      }
    }
    JOINT RightShoulder
    {
      OFFSET -0.000 37.717 0.000
      CHANNELS 6 Xposition Yposition Zposition Zrotation Xrotation Yrotation
      JOINT RightArm
      {
        OFFSET -19.844 0.000 -0.000
        CHANNELS 6 Xposition Yposition Zposition Zrotation Xrotation Yrotation
        JOINT RightForeArm
        {
          OFFSET -24.530 -0.000 0.000
          CHANNELS 6 Xposition Yposition Zposition Zrotation Xrotation Yrotation
          JOINT RightHand
          {
            OFFSET -23.889 0.000 -0.000
            CHANNELS 6 Xposition Yposition Zposition Zrotation Xrotation Yrotation
            JOINT RightHandThumb1
            {
            OFFSET -4.970 -0.620 3.390
            CHANNELS 6 Xposition Yposition Zposition Zrotation Xrotation Yrotation
              JOINT RightHandThumb2
              {
              OFFSET -2.150 0.000 0.000
              CHANNELS 6 Xposition Yposition Zposition Zrotation Xrotation Yrotation
                JOINT RightHandThumb3
                {
                OFFSET -2.200 0.000 0.000
                CHANNELS 6 Xposition Yposition Zposition Zrotation Xrotation Yrotation
                  JOINT RightHandThumb4
                  {
                  OFFSET -1.700 0.000 0.000
                  CHANNELS 6 Xposition Yposition Zposition Zrotation Xrotation Yrotation
                  }
                }
              }
            }
            JOINT RightHandIndex1
            {
            OFFSET -8.730 0.680 2.070
            CHANNELS 6 Xposition Yposition Zposition Zrotation Xrotation Yrotation
              JOINT RightHandIndex2
              {
              OFFSET -2.670 0.000 0.000
              CHANNELS 6 Xposition Yposition Zposition Zrotation Xrotation Yrotation
                JOINT RightHandIndex3
                {
                OFFSET -2.130 0.000 0.000
                CHANNELS 6 Xposition Yposition Zposition Zrotation Xrotation Yrotation
                  JOINT RightHandIndex4
                  {
                  OFFSET -1.800 0.000 0.000
                  CHANNELS 6 Xposition Yposition Zposition Zrotation Xrotation Yrotation
                  }
                }
              }
            }
            JOINT RightHandMiddle1
            {
            OFFSET -9.220 0.670 0.550
            CHANNELS 6 Xposition Yposition Zposition Zrotation Xrotation Yrotation
              JOINT RightHandMiddle2
              {
              OFFSET -2.660 0.000 0.000
              CHANNELS 6 Xposition Yposition Zposition Zrotation Xrotation Yrotation
                JOINT RightHandMiddle3
                {
                OFFSET -2.280 0.000 0.000
                CHANNELS 6 Xposition Yposition Zposition Zrotation Xrotation Yrotation
                  JOINT RightHandMiddle4
                  {
                  OFFSET -1.500 0.000 0.000
                  CHANNELS 6 Xposition Yposition Zposition Zrotation Xrotation Yrotation
                  }
                }
              }
            }
            JOINT RightHandRing1
            {
            OFFSET -9.250 0.670 -1.130
            CHANNELS 6 Xposition Yposition Zposition Zrotation Xrotation Yrotation
              JOINT RightHandRing2
              {
              OFFSET -2.470 0.000 0.000
              CHANNELS 6 Xposition Yposition Zposition Zrotation Xrotation Yrotation
                JOINT RightHandRing3
                {
                OFFSET -2.210 0.000 0.000
                CHANNELS 6 Xposition Yposition Zposition Zrotation Xrotation Yrotation
                  JOINT RightHandRing4
                  {
                  OFFSET -1.800 0.000 0.000
                  CHANNELS 6 Xposition Yposition Zposition Zrotation Xrotation Yrotation
                  }
                }
              }
            }
            JOINT RightHandPinky1
            {
            OFFSET -9.350 0.660 -2.720
            CHANNELS 6 Xposition Yposition Zposition Zrotation Xrotation Yrotation
              JOINT RightHandPinky2
              {
              OFFSET -1.630 0.000 0.000
              CHANNELS 6 Xposition Yposition Zposition Zrotation Xrotation Yrotation
                JOINT RightHandPinky3
                {
                OFFSET -1.710 0.000 0.000
                CHANNELS 6 Xposition Yposition Zposition Zrotation Xrotation Yrotation
                  JOINT RightHandPinky4
                  {
                  OFFSET -1.800 0.000 0.000
                  CHANNELS 6 Xposition Yposition Zposition Zrotation Xrotation Yrotation
                  }
                }
              }
            }
          }
        }
      }
    }
    JOINT Neck
    {
      OFFSET -0.000 37.717 0.000
      CHANNELS 6 Xposition Yposition Zposition Zrotation Xrotation Yrotation
      JOINT Head
      {
        OFFSET -0.000 23.725 -0.000
        CHANNELS 6 Xposition Yposition Zposition Zrotation Xrotation Yrotation
        End Site
        {
          OFFSET -0.000 0.095 -0.000
        }
      }
    }
  }
}
MOTION
Frames:	4
Frame Time:	0.0333333
-5.43779 -7.04618 -293.708 2.48518 -2.53079 -15.3526 9.47118 -8.74121 2.39251 2.20946 -9.64346 -0.174933 -1.19209e-05 -49.3297 -4.76837e-05 -10.0451 19.124 -5.42187e-06 1.19209e-05 -38.3017 0 4.48957 -20.2519 3.95053 -9.15803 -9.29511 1.28384 8.93398 -13.1428 -0.775654 -1.19209e-05 -48.7933 -2.38419e-05 -9.966 22.8384 0 5.96046e-06 -39.2736 -4.76837e-05 15.0542 -12.7765 12.5938 -5.96046e-06 6.54269 -6.54266 0.692072 -1.75094 -0.162069 -1.19209e-05 37.717 7.15256e-05 -34.5279 1.19528e-05 -5.11965 23.7777 6.51926e-06 0 -29.5149 38.4937 -2.74815 25.0575 -2.38419e-05 -1.19209e-05 1.60797e-05 1.02453e-05 -41.911 25.3174 0 -5.96046e-06 1.70362 -0.147492 -12.9381 0.0062 0.0497 0.0339 0 0 0 0 0.0215 0 0 0 0 0 0.022 0 0 0 0 0 0.017 0 0 0 0 -0.0068 0.0873 0.0207 0 0 0 0 0.0267 0 0 0 0 0 0.0213 0 0 0 0 0 0.018 0 0 0 0 -0.0067 0.0922 0.0055 0 0 0 0 0.0266 0 0 0 0 0 0.0228 0 0 0 0 0 0.015 0 0 0 0 -0.0067 0.0925 -0.0113 0 0 0 0 0.0247 0 0 0 0 0 0.0221 0 0 0 0 0 0.018 0 0 0 0 -0.0066 0.0935 -0.0272 0 0 0 0 0.0163 0 0 0 0 0 0.0171 0 0 0 0 0 0.018 0 0 0 0 -1.19209e-05 37.717 7.15256e-05 32.1782 -3.4151e-06 5.04235 -24.1412 -1.19209e-05 -9.53674e-05 48.3585 25.0863 1.50089 -25.9388 1.49012e-05 9.53674e-05 2.42593e-06 2.56132e-06 32.0321 -24.1614 -2.98023e-06 -7.15256e-05 -1.38261 0.000387635 15.1809 -0.0062 0.0497 0.0339 0 0 0 0 0.0215 0 0 0 0 0 0.022 0 0 0 0 0 0.017 0 0 0 0 0.0068 0.0873 0.0207 0 0 0 0 0.0267 0 0 0 0 0 0.0213 0 0 0 0 0 0.018 0 0 0 0 0.0067 0.0922 0.0055 0 0 0 0 0.0266 0 0 0 0 0 0.0228 0 0 0 0 0 0.015 0 0 0 0 0.0067 0.0925 -0.0113 0 0 0 0 0.0247 0 0 0 0 0 0.0221 0 0 0 0 0 0.018 0 0 0 0 0.0066 0.0935 -0.0272 0 0 0 0 0.0163 0 0 0 0 0 0.0171 0 0 0 0 0 0.018 0 0 0 0 -1.19209e-05 37.717 7.15256e-05 7.60992 6.56063 -0.874543 0 21.8383 0 1.04962e-05 -1.0332e-05 1.70755e-06 
-5.47381 -8.00065 -293.46 2.63308 -2.65194 -16.1263 9.48083 -8.71281 2.30844 3.08297 -10.5105 1.13552 2.38419e-05 -48.6413 0 -11.8283 21.15 0 -2.38419e-05 -38.5434 -7.15256e-05 4.64625 -20.6505 4.11846 -9.16187 -9.32215 1.32685 9.06524 -14.2203 -0.0031866 -1.78814e-05 -48.0611 0 -10.1648 25.213 -3.77471e-06 1.19209e-05 -39.4143 -4.76837e-05 13.0571 -13.2474 11.092 -1.19209e-05 6.52144 -6.52144 0.651763 -1.63416 -0.141412 -5.96046e-06 37.717 -2.38419e-05 -34.8337 1.10991e-05 -5.19121 23.8428 -5.58794e-06 0 -27.3847 38.5198 -3.97329 24.926 -2.38419e-05 1.19209e-05 4.55989e-06 -5.12265e-06 -43.1516 24.6113 2.38419e-05 5.96046e-06 4.11972 -0.246695 -15.2271 0.0062 0.0497 0.0339 0 0 0 0 0.0215 0 0 0 0 0 0.022 0 0 0 0 0 0.017 0 0 0 0 -0.0068 0.0873 0.0207 0 0 0 0 0.0267 0 0 0 0 0 0.0213 0 0 0 0 0 0.018 0 0 0 0 -0.0067 0.0922 0.0055 0 0 0 0 0.0266 0 0 0 0 0 0.0228 0 0 0 0 0 0.015 0 0 0 0 -0.0067 0.0925 -0.0113 0 0 0 0 0.0247 0 0 0 0 0 0.0221 0 0 0 0 0 0.018 0 0 0 0 -0.0066 0.0935 -0.0272 0 0 0 0 0.0163 0 0 0 0 0 0.0171 0 0 0 0 0 0.018 0 0 0 0 -5.96046e-06 37.717 -2.38419e-05 32.3927 -2.56132e-06 5.08395 -24.3444 -5.96046e-06 2.38419e-05 48.0993 25.1216 2.23369 -25.23 5.96046e-06 2.38419e-05 6.64247e-06 -8.53774e-07 32.7774 -23.8861 -8.9407e-06 2.38419e-05 -1.66684 -0.00219091 16.672 -0.0062 0.0497 0.0339 0 0 0 0 0.0215 0 0 0 0 0 0.022 0 0 0 0 0 0.017 0 0 0 0 0.0068 0.0873 0.0207 0 0 0 0 0.0267 0 0 0 0 0 0.0213 0 0 0 0 0 0.018 0 0 0 0 0.0067 0.0922 0.0055 0 0 0 0 0.0266 0 0 0 0 0 0.0228 0 0 0 0 0 0.015 0 0 0 0 0.0067 0.0925 -0.0113 0 0 0 0 0.0247 0 0 0 0 0 0.0221 0 0 0 0 0 0.018 0 0 0 0 0.0066 0.0935 -0.0272 0 0 0 0 0.0163 0 0 0 0 0 0.0171 0 0 0 0 0 0.018 0 0 0 0 -5.96046e-06 37.717 -2.38419e-05 8.50214 6.56341 -0.978917 1.19209e-05 21.5546 2.38419e-05 1.03253e-05 -1.02986e-05 -3.41509e-06 
-5.52232 -9.77219 -292.991 2.76431 -2.7816 -17.3933 9.4499 -8.61474 2.2202 4.92338 -12.0222 3.39935 5.96046e-06 -47.4278 2.38419e-05 -15.0911 24.6446 0 0 -39.0199 -9.53674e-05 4.93546 -20.7728 4.39336 -9.09494 -9.36958 1.36163 9.57222 -16.5736 1.34268 0 -47.0302 0 -10.8123 30.1811 0 -1.19209e-05 -39.5408 0 11.2276 -12.2537 9.3188 -5.96046e-06 6.50024 -6.50024 0.702904 -1.51175 -0.175329 -5.96046e-06 37.717 -2.38419e-05 -35.3509 1.06722e-05 -5.36486 23.8156 3.72529e-06 2.38419e-05 -22.9953 36.5225 -6.38016 24.6432 0 -2.38419e-05 5.18534e-06 -6.83019e-06 -47.4157 23.5442 -4.76837e-05 -5.96046e-06 10.0068 -0.529194 -21.0703 0.0062 0.0497 0.0339 -23.3435 0 0 0 0.0215 0 0 -23.3435 0 0 0.022 0 0 -23.3435 0 0 0.017 0 0 0 0 -0.0068 0.0873 0.0207 -23.3435 0 0 0 0.0267 0 -41.4995 0 0 0 0.0213 0 -46.6869 0 0 0 0.018 0 0 0 0 -0.0067 0.0922 0.0055 -23.3435 0 0 0 0.0266 0 -41.4995 0 0 0 0.0228 0 -46.6869 0 0 0 0.015 0 0 0 0 -0.0067 0.0925 -0.0113 -23.3435 0 0 0 0.0247 0 -41.4995 0 0 0 0.0221 0 -46.6869 0 0 0 0.018 0 0 0 0 -0.0066 0.0935 -0.0272 -23.3435 0 0 0 0.0163 0 -41.4995 0 0 0 0.0171 0 -46.6869 0 0 0 0.018 0 0 0 0 -5.96046e-06 37.717 -2.38419e-05 32.3253 -5.12264e-06 5.19918 -24.5722 1.19209e-05 2.38419e-05 48.1916 18.8959 7.56586 -25.2411 -1.02445e-05 -4.76837e-05 1.53144e-06 0 33.2543 -23.1263 7.82311e-06 -2.38419e-05 0.433413 0.0342913 21.1564 -0.0062 0.0497 0.0339 0 0 0 0 0.0215 0 0 0 0 0 0.022 0 0 0 0 0 0.017 0 0 0 0 0.0068 0.0873 0.0207 0 0 0 0 0.0267 0 0 0 0 0 0.0213 0 0 0 0 0 0.018 0 0 0 0 0.0067 0.0922 0.0055 0 0 0 0 0.0266 0 0 0 0 0 0.0228 0 0 0 0 0 0.015 0 0 0 0 0.0067 0.0925 -0.0113 0 0 0 0 0.0247 0 0 0 0 0 0.0221 0 0 0 0 0 0.018 0 0 0 0 0.0066 0.0935 -0.0272 0 0 0 0 0.0163 0 0 0 0 0 0.0171 0 0 0 0 0 0.018 0 0 0 0 -5.96046e-06 37.717 -2.38419e-05 10.1154 7.03577 -1.25186 -1.19209e-05 21.1759 -7.15256e-05 1.30601e-05 -1.07789e-05 0 
-5.52232 -9.77219 -292.991 2.76431 -2.7816 -17.3933 9.4499 -8.61474 2.2202 4.92338 -12.0222 3.39935 5.96046e-06 -47.4278 2.38419e-05 -15.0911 24.6446 0 0 -39.0199 -9.53674e-05 4.93546 -20.7728 4.39336 -9.09494 -9.36958 1.36163 9.57222 -16.5736 1.34268 0 -47.0302 0 -10.8123 30.1811 0 -1.19209e-05 -39.5408 0 11.2276 -12.2537 9.3188 -5.96046e-06 6.50024 -6.50024 0.702904 -1.51175 -0.175329 -5.96046e-06 37.717 -2.38419e-05 -35.3509 1.06722e-05 -5.36486 23.8156 3.72529e-06 2.38419e-05 -22.9953 36.5225 -6.38016 24.6432 0 -2.38419e-05 5.18534e-06 -6.83019e-06 -47.4157 23.5442 -4.76837e-05 -5.96046e-06 10.0068 -0.529194 -21.0703 0.0062 0.0497 0.0339 -23.3435 0 0 0 0.0215 0 0 -23.3435 0 0 0.022 0 0 -23.3435 0 0 0.017 0 0 0 0 -0.0068 0.0873 0.0207 -23.3435 0 0 0 0.0267 0 -41.4995 0 0 0 0.0213 0 -46.6869 0 0 0 0.018 0 0 0 0 -0.0067 0.0922 0.0055 -23.3435 0 0 0 0.0266 0 -41.4995 0 0 0 0.0228 0 -46.6869 0 0 0 0.015 0 0 0 0 -0.0067 0.0925 -0.0113 -23.3435 0 0 0 0.0247 0 -41.4995 0 0 0 0.0221 0 -46.6869 0 0 0 0.018 0 0 0 0 -0.0066 0.0935 -0.0272 -23.3435 0 0 0 0.0163 0 -41.4995 0 0 0 0.0171 0 -46.6869 0 0 0 0.018 0 0 0 0 -5.96046e-06 37.717 -2.38419e-05 32.3253 -5.12264e-06 5.19918 -24.5722 1.19209e-05 2.38419e-05 48.1916 18.8959 7.56586 -25.2411 -1.02445e-05 -4.76837e-05 1.53144e-06 0 33.2543 -23.1263 7.82311e-06 -2.38419e-05 0.433413 0.0342913 21.1564 -0.0062 0.0497 0.0339 0 0 0 0 0.0215 0 0 0 0 0 0.022 0 0 0 0 0 0.017 0 0 0 0 0.0068 0.0873 0.0207 0 0 0 0 0.0267 0 0 0 0 0 0.0213 0 0 0 0 0 0.018 0 0 0 0 0.0067 0.0922 0.0055 0 0 0 0 0.0266 0 0 0 0 0 0.0228 0 0 0 0 0 0.015 0 0 0 0 0.0067 0.0925 -0.0113 0 0 0 0 0.0247 0 0 0 0 0 0.0221 0 0 0 0 0 0.018 0 0 0 0 0.0066 0.0935 -0.0272 0 0 0 0 0.0163 0 0 0 0 0 0.0171 0 0 0 0 0 0.018 0 0 0 0 -5.96046e-06 37.717 -2.38419e-05 10.1154 7.03577 -1.25186 -1.19209e-05 21.1759 -7.15256e-05 1.30601e-05 -1.07789e-05 0 
